<svg xmlns="http://www.w3.org/2000/svg" version="1.1" viewBox="-5.0 -10.0 110.0 135.0">
 <path d="m91.051 53c-0.42188 0-0.82812 0.078125-1.2188 0.19141l-3.7812-6.5508c1-0.82812 1.6484-2.0703 1.6484-3.4688 0-1.3281-0.58984-2.5195-1.5117-3.3516l4.0508-7.0117c0.39062 0.10938 0.78906 0.19141 1.2188 0.19141 2.5 0 4.5391-2.0312 4.5391-4.5391 0-2.5-2.0312-4.5391-4.5391-4.5391-0.42188 0-0.82812 0.078125-1.2188 0.19141l-3.9102-6.7812c0.83984-0.82031 1.3711-1.9688 1.3711-3.2383 0-2.5-2.0312-4.5391-4.5391-4.5391-2.5117 0-4.5391 2.0312-4.5391 4.5391 0 2.5 2.0312 4.5391 4.5391 4.5391 0.42188 0 0.82812-0.078124 1.2188-0.19141l3.9102 6.7812c-0.83984 0.82031-1.3711 1.9688-1.3711 3.2383 0 1.2695 0.53125 2.4102 1.3711 3.2383l-4.0781 7.0703c-0.33984-0.078125-0.67969-0.12891-1.0391-0.12891-2.1094 0-3.8789 1.4609-4.3789 3.4102h-8.0312c-0.5-1.9609-2.2695-3.4102-4.3789-3.4102-0.30078 0-0.58984 0.03125-0.87109 0.089844l-4.0586-7.0312c0.83984-0.82031 1.3711-1.9688 1.3711-3.2383 0-2.5-2.0312-4.5391-4.5391-4.5391-2.1094 0-3.8789 1.4609-4.3789 3.4102h-7.8281c-0.5-1.9609-2.2695-3.4102-4.3789-3.4102-2.5 0-4.5391 2.0312-4.5391 4.5391 0 1.2695 0.53125 2.4102 1.3711 3.2383l-3.9102 6.7812c-0.39062-0.10938-0.78906-0.19141-1.2188-0.19141-2.1094 0-3.8789 1.4609-4.3789 3.4102h-8.3984c-0.5-1.9609-2.2695-3.4102-4.3789-3.4102-2.5 0-4.5391 2.0312-4.5391 4.5391 0 1.2695 0.53125 2.4102 1.3711 3.2383l-3.3398 5.7891c-0.39062-0.10938-0.78906-0.19141-1.2188-0.19141-2.4883-0.003906-4.5195 2.0352-4.5195 4.5352s2.0312 4.5391 4.5391 4.5391c2.5 0 4.5391-2.0312 4.5391-4.5391 0-1.2695-0.53125-2.4102-1.3711-3.2383l3.3398-5.7891c0.39062 0.10938 0.78906 0.19141 1.2188 0.19141 2.1094 0 3.8789-1.4609 4.3789-3.4102h8.3984c0.5 1.9609 2.2695 3.4102 4.3789 3.4102 0.42188 0 0.82812-0.078125 1.2188-0.19141l3.6914 6.3984c-1.0391 0.82813-1.7188 2.1016-1.7188 3.5312 0 1.2891 0.53906 2.4414 1.4102 3.2695l-3.9492 6.8398c-0.39062-0.10938-0.78906-0.19141-1.2188-0.19141-2.5 0-4.5391 2.0312-4.5391 4.5391 0 2.5 2.0312 4.5391 4.5391 4.5391 0.42188 0 0.82812-0.078125 1.2188-0.19141l3.9102 6.7812c-0.83984 0.82031-1.3711 1.9688-1.3711 3.2383 0 2.5 2.0312 4.5391 4.5391 4.5391 2.1094 0 3.8789-1.4609 4.3789-3.4102h7.8281c0.5 1.9609 2.2695 3.4102 4.3789 3.4102 2.5 0 4.5391-2.0312 4.5391-4.5391 0-1.2695-0.53125-2.4102-1.3711-3.2383l3.9414-6.8203c0.42969 0.12891 0.87891 0.23047 1.3516 0.23047 1.9805 0 3.6484-1.2891 4.2695-3.0586h7.9414c0.5 1.9609 2.2695 3.4102 4.3789 3.4102 2.5 0 4.5391-2.0312 4.5391-4.5391 0-1.2695-0.53125-2.4102-1.3711-3.2383l3.9102-6.7812c0.39062 0.10938 0.78906 0.19141 1.2188 0.19141 2.5 0 4.5391-2.0312 4.5391-4.5391 0.015625-2.5117-2.0742-4.543-4.5742-4.543zm-10.172-38.91c0-1.2617 1.0312-2.2891 2.2891-2.2891 1.2617 0 2.2891 1.0312 2.2891 2.2891 0 1.2617-1.0312 2.2891-2.2891 2.2891-1.2578 0-2.2891-1.0273-2.2891-2.2891zm12.883 14.359c0 1.2617-1.0312 2.2891-2.2891 2.2891-1.2617 0-2.2891-1.0312-2.2891-2.2891 0-1.2617 1.0312-2.2891 2.2891-2.2891 1.2578 0 2.2891 1.0312 2.2891 2.2891zm-85.223 30.039c-1.2617 0-2.2891-1.0312-2.2891-2.2891 0-1.2617 1.0312-2.2891 2.2891-2.2891 1.2617 0 2.2891 1.0312 2.2891 2.2891 0 1.2617-1.0273 2.2891-2.2891 2.2891zm74.633-17.609c1.2617 0 2.2891 1.0312 2.2891 2.2891 0 1.2617-1.0312 2.2891-2.2891 2.2891-1.2617 0-2.2891-1.0312-2.2891-2.2891-0.003906-1.2578 1.0273-2.2891 2.2891-2.2891zm-14.5 2.293c0 1.2617-1.0312 2.2891-2.2891 2.2891-1.2617 0-2.2891-1.0312-2.2891-2.2891 0-1.2617 1.0312-2.2891 2.2891-2.2891 1.2656-0.003906 2.2891 1.0273 2.2891 2.2891zm-29.82 13.918c0-1.2617 1.0312-2.2891 2.2891-2.2891 1.2617 0 2.2891 1.0312 2.2891 2.2891 0 1.2617-1.0312 2.2891-2.2891 2.2891-1.2617 0-2.2891-1.0195-2.2891-2.2891zm16.988 0c0-1.2617 1.0312-2.2891 2.2891-2.2891 1.2617 0 2.2891 1.0312 2.2891 2.2891 0 1.2617-1.0312 2.2891-2.2891 2.2891-1.2578 0-2.2891-1.0195-2.2891-2.2891zm2.4492-30.93c1.2617 0 2.2891 1.0312 2.2891 2.2891 0 1.2617-1.0312 2.2891-2.2891 2.2891-1.2578 0-2.2891-1.0195-2.2891-2.2891 0-1.2578 1.0312-2.2891 2.2891-2.2891zm-16.578 0c1.2617 0 2.2891 1.0312 2.2891 2.2891 0 1.2617-1.0312 2.2891-2.2891 2.2891-1.2617 0-2.2891-1.0312-2.2891-2.2891-0.011719-1.2578 1.0195-2.2891 2.2891-2.2891zm-25.449 18.949c-1.2617 0-2.2891-1.0312-2.2891-2.2891 0-1.2617 1.0312-2.2891 2.2891-2.2891 1.2617 0 2.2891 1.0312 2.2891 2.2891 0 1.2578-1.0312 2.2891-2.2891 2.2891zm14.859-2.2891c0-1.2617 1.0312-2.2891 2.2891-2.2891 1.2617 0 2.2891 1.0312 2.2891 2.2891 0 1.2617-1.0312 2.2891-2.2891 2.2891-1.2617 0-2.2891-1.0312-2.2891-2.2891zm5.457 3.2383c0.83984-0.82031 1.3711-1.9688 1.3711-3.2383 0-1.2695-0.53125-2.4102-1.3711-3.2383l3.9102-6.7812c0.39062 0.10938 0.78906 0.19141 1.2188 0.19141 2.1094 0 3.8789-1.4609 4.3789-3.4102h7.8281c0.5 1.9609 2.2695 3.4102 4.3789 3.4102 0.42188 0 0.82812-0.078126 1.2188-0.19141l3.9805 6.8984c-1 0.82812-1.6406 2.0703-1.6406 3.4688 0 1.1992 0.48047 2.2891 1.2383 3.1016l-3.7383 6.4688c-0.39062-0.10938-0.78906-0.19141-1.2188-0.19141-2.1406 0-3.9414 1.5-4.4102 3.5h-8.1797c-0.46875-2-2.2617-3.5-4.4102-3.5-0.26172 0-0.51172 0.03125-0.76172 0.078125zm-6.0273 25.492c0-1.2617 1.0312-2.2891 2.2891-2.2891 1.2617 0 2.2891 1.0312 2.2891 2.2891 0 1.2617-1.0312 2.2891-2.2891 2.2891-1.2617 0-2.2891-1.0312-2.2891-2.2891zm10.59 16.648c-1.2617 0-2.2891-1.0312-2.2891-2.2891 0-1.2617 1.0312-2.2891 2.2891-2.2891 1.2617 0 2.2891 1.0312 2.2891 2.2891 0 1.2617-1.0312 2.2891-2.2891 2.2891zm16.578 0c-1.2617 0-2.2891-1.0312-2.2891-2.2891 0-1.2617 1.0312-2.2891 2.2891-2.2891 1.2617 0 2.2891 1.0312 2.2891 2.2891 0.011719 1.2617-1.0195 2.2891-2.2891 2.2891zm0-6.8281c-2.1094 0-3.8789 1.4609-4.3789 3.4102h-7.8281c-0.5-1.9609-2.2695-3.4102-4.3789-3.4102-0.42187 0-0.82812 0.078125-1.2188 0.19141l-3.9102-6.7812c0.83984-0.82031 1.3711-1.9688 1.3711-3.2383s-0.53125-2.4102-1.3711-3.2383l3.9609-6.8516c0.37891 0.10156 0.76172 0.17188 1.1719 0.17188 2.0781 0 3.8203-1.4102 4.3516-3.3203h8.293c0.53125 1.9102 2.2695 3.3203 4.3516 3.3203 0.26172 0 0.51953-0.03125 0.76953-0.078125l3.9805 6.8906c-0.76953 0.80859-1.25 1.8984-1.25 3.1016 0 1.2188 0.48828 2.3203 1.2695 3.1406l-3.9688 6.8789c-0.38281-0.10938-0.78516-0.1875-1.2148-0.1875zm8.4531-7.5312c-1.2617 0-2.2891-1.0312-2.2891-2.2891 0-1.2617 1.0312-2.2891 2.2891-2.2891 1.2617 0 2.2891 1.0312 2.2891 2.2891 0 1.2578-1.0195 2.2891-2.2891 2.2891zm16.59 0.35156c-1.2617 0-2.2891-1.0312-2.2891-2.2891 0-1.2617 1.0312-2.2891 2.2891-2.2891 1.2617 0 2.2891 1.0312 2.2891 2.2891 0 1.2578-1.0312 2.2891-2.2891 2.2891zm1.2188-6.6406c-0.39062-0.10938-0.78906-0.19141-1.2188-0.19141-2.1094 0-3.8789 1.4609-4.3789 3.4102h-7.75c-0.37109-2.1289-2.2188-3.7617-4.4609-3.7617-0.46875 0-0.92188 0.089844-1.3516 0.23047l-3.8398-6.6484c1.0195-0.82812 1.6797-2.0781 1.6797-3.5 0-1.1992-0.48047-2.2891-1.2383-3.1016l3.7383-6.4688c0.39062 0.10938 0.78906 0.19141 1.2188 0.19141 2.1094 0 3.8789-1.4609 4.3789-3.4102h8.0312c0.5 1.9609 2.2695 3.4102 4.3789 3.4102 0.30078 0 0.57812-0.03125 0.85938-0.089844l3.8516 6.6797c-0.83984 0.82031-1.3711 1.9688-1.3711 3.2383 0 1.2695 0.53125 2.4102 1.3711 3.2383zm7.0703-7.7305c-1.2617 0-2.2891-1.0312-2.2891-2.2891 0-1.2617 1.0312-2.2891 2.2891-2.2891 1.2617 0 2.2891 1.0312 2.2891 2.2891s-1.0195 2.2891-2.2891 2.2891z"/>
<text x="0.0" y="117.5" font-size="5.0" font-weight="bold" font-family="Arbeit Regular, Helvetica, Arial-Unicode, Arial, Sans-serif" fill="#000000">Created by Faizal khusein</text><text x="0.0" y="122.5" font-size="5.0" font-weight="bold" font-family="Arbeit Regular, Helvetica, Arial-Unicode, Arial, Sans-serif" fill="#000000">from Noun Project</text></svg>