<svg xmlns="http://www.w3.org/2000/svg" version="1.1" viewBox="-5.0 -10.0 110.0 135.0">
 <path d="m90 82.066c0 0.72656-0.58984 1.3164-1.3164 1.3164h-70.152v4.5742c0 0.72656-0.58984 1.3164-1.3164 1.3164-0.72656 0-1.3164-0.58984-1.3164-1.3164v-4.5742h-4.582c-0.72656 0-1.3164-0.58984-1.3164-1.3164 0-0.72656 0.58984-1.3164 1.3164-1.3164h4.582v-68.711c0-0.72656 0.58984-1.3164 1.3164-1.3164 0.72656 0 1.3164 0.58984 1.3164 1.3164v68.711h70.152c0.72656 0 1.3164 0.58984 1.3164 1.3164zm-41.336-38.648c0.72656 0 1.3164 0.58984 1.3164 1.3164v33.281c0 0.72656-0.58984 1.3164-1.3164 1.3164h-9.6406c-0.72656 0-1.3164-0.58984-1.3164-1.3164v-33.281c0-0.72656 0.58984-1.3164 1.3164-1.3164zm-1.3164 2.6328h-7.0078v30.648h7.0078zm-25.559 31.965v-20.688c0-0.72656 0.58984-1.3164 1.3164-1.3164h9.6367c0.72656 0 1.3164 0.58984 1.3164 1.3164v20.688c0 0.72656-0.58984 1.3164-1.3164 1.3164h-9.6367c-0.72656 0-1.3164-0.58984-1.3164-1.3164zm2.6367-1.3164h7v-18.055h-7zm19.418-51.762c3.0469 0 5.5273 2.4805 5.5273 5.5273 0 0.14453-0.007813 0.28516-0.019532 0.42578l5.3047 0.80078c0.82812-2.0039 2.8047-3.4219 5.1055-3.4219 1.0469 0 2.0273 0.29297 2.8633 0.80078l14.699-14.699h-2.6484c-0.72656 0-1.3164-0.58984-1.3164-1.3164 0-0.72656 0.58984-1.3164 1.3164-1.3164h5.8281c0.72656 0 1.3164 0.58984 1.3164 1.3164v5.8242c0 0.72656-0.58984 1.3164-1.3164 1.3164-0.72656 0-1.3164-0.58984-1.3164-1.3164v-2.6445l-14.699 14.699c0.50781 0.83594 0.80078 1.8125 0.80078 2.8594 0 3.0469-2.4805 5.5234-5.5273 5.5234-2.875 0-5.2422-2.2109-5.4961-5.0234l-5.7578-0.87109c-0.98047 1.5391-2.7031 2.5625-4.6602 2.5625-1.3555 0-2.5977-0.49219-3.5625-1.3047l-7.2461 5.2695c0.26563 0.64453 0.41016 1.3516 0.41016 2.0898 0 3.0469-2.4805 5.5273-5.5273 5.5273s-5.5195-2.4805-5.5195-5.5273c0-3.0469 2.4766-5.5195 5.5195-5.5195 1.3555 0 2.5977 0.49219 3.5625 1.3047l7.2461-5.2695c-0.26562-0.64453-0.41016-1.3516-0.41016-2.0898 0-3.0469 2.4805-5.5273 5.5273-5.5273zm13.027 8.8516c0 1.5938 1.2969 2.8906 2.8867 2.8906 1.5938 0 2.8906-1.2969 2.8906-2.8906s-1.2969-2.8867-2.8906-2.8867-2.8867 1.2969-2.8867 2.8867zm-26.055 8.25c0-1.5938-1.2969-2.8867-2.8906-2.8867s-2.8867 1.2969-2.8867 2.8867c0 1.5938 1.2969 2.8906 2.8867 2.8906 1.5938 0 2.8906-1.2969 2.8906-2.8906zm13.027-14.469c-1.5938 0-2.8906 1.2969-2.8906 2.8906s1.2969 2.8867 2.8906 2.8867 2.8906-1.2969 2.8906-2.8867c0-1.5938-1.2969-2.8906-2.8906-2.8906zm20.734 20.711c0.72656 0 1.3164 0.58984 1.3164 1.3164v28.422c0 0.72656-0.58984 1.3164-1.3164 1.3164h-9.6367c-0.72656 0-1.3164-0.58984-1.3164-1.3164v-28.422c0-0.72656 0.58984-1.3164 1.3164-1.3164zm-1.3164 2.6328h-7.0039v25.785h7.0039zm18.555-15.426v42.531c0 0.72656-0.58984 1.3164-1.3164 1.3164h-9.6406c-0.72656 0-1.3164-0.58984-1.3164-1.3164v-42.531c0-0.72656 0.58984-1.3164 1.3164-1.3164h9.6406c0.72656 0 1.3164 0.58984 1.3164 1.3164zm-2.6328 1.3164h-7.0078v39.895h7.0078zm-46.68-20.34h0.83203c0.72656 0 1.3164-0.58984 1.3164-1.3164 0-0.72656-0.58984-1.3164-1.3164-1.3164h-0.83203c-0.72656 0-1.3164 0.58984-1.3164 1.3164 0 0.72656 0.58984 1.3164 1.3164 1.3164zm3.8398 0h7.9961c0.72656 0 1.3164-0.58984 1.3164-1.3164 0-0.72656-0.58984-1.3164-1.3164-1.3164h-7.9961c-0.72656 0-1.3164 0.58984-1.3164 1.3164 0 0.72656 0.58984 1.3164 1.3164 1.3164zm-3.8633 3.332h11.859c0.72656 0 1.3164-0.58984 1.3164-1.3164 0-0.72656-0.58984-1.3164-1.3164-1.3164h-11.859c-0.72656 0-1.3164 0.58984-1.3164 1.3164 0 0.72656 0.58984 1.3164 1.3164 1.3164zm-10.691-0.76172v-4.4414c0-0.72656 0.58984-1.3164 1.3164-1.3164h4.4414c0.72656 0 1.3164 0.58984 1.3164 1.3164v4.4414c0 0.72656-0.58984 1.3164-1.3164 1.3164h-4.4414c-0.72656 0-1.3164-0.58984-1.3164-1.3164zm2.6367-1.3164h1.8086v-1.8086h-1.8086zm8.0547 5.4023h7.9609c0.72656 0 1.3164-0.58984 1.3164-1.3164 0-0.72656-0.58984-1.3164-1.3164-1.3164h-7.9609c-0.72656 0-1.3164 0.58984-1.3164 1.3164 0 0.72656 0.58984 1.3164 1.3164 1.3164z"/>
<text x="0.0" y="117.5" font-size="5.0" font-weight="bold" font-family="Arbeit Regular, Helvetica, Arial-Unicode, Arial, Sans-serif" fill="#000000">Created by pojok_icon</text><text x="0.0" y="122.5" font-size="5.0" font-weight="bold" font-family="Arbeit Regular, Helvetica, Arial-Unicode, Arial, Sans-serif" fill="#000000">from Noun Project</text></svg>